{
  "accessors": [
    {
      "bufferView": 2,
      "componentType": 5126,
      "count": 2259,
      "max": [
        38.630641937255859,
        116.2122802734375,
        141.73802185058594
      ],
      "min": [
        -32.413002014160156,
        -49.764347076416016,
        76.24560546875
      ],
      "type": "VEC3"
    },
    {
      "bufferView": 2,
      "byteOffset": 27108,
      "componentType": 5126,
      "count": 2259,
      "max": [
        1,
        1,
        1
      ],
      "min": [
        -0.99997889995574951,
        -1,
        -1
      ],
      "type": "VEC3"
    },
    {
      "bufferView": 3,
      "componentType": 5126,
      "count": 2259,
      "max": [
        1,
        0.99931782484054565,
        0.99281001091003418,
        1
      ],
      "min": [
        -1,
        -0.9999992847442627,
        -0.99999970197677612,
        1
      ],
      "type": "VEC4"
    },
    {
      "bufferView": 1,
      "componentType": 5126,
      "count": 2259,
      "max": [
        0.99705016613006592,
        0.99513989686965942
      ],
      "min": [
        0.0053862333297729492,
        0.0050108996219933033
      ],
      "type": "VEC2"
    },
    {
      "bufferView": 0,
      "componentType": 5125,
      "count": 8568,
      "max": [
        2258
      ],
      "min": [
        0
      ],
      "type": "SCALAR"
    },
    {
      "bufferView": 2,
      "byteOffset": 54216,
      "componentType": 5126,
      "count": 6009,
      "max": [
        49.624439239501953,
        160.183349609375,
        141.73202514648438
      ],
      "min": [
        -43.763908386230469,
        -38.44500732421875,
        76.240928649902344
      ],
      "type": "VEC3"
    },
    {
      "bufferView": 2,
      "byteOffset": 126324,
      "componentType": 5126,
      "count": 6009,
      "max": [
        1,
        1,
        1
      ],
      "min": [
        -1,
        -1,
        -1
      ],
      "type": "VEC3"
    },
    {
      "bufferView": 3,
      "byteOffset": 36144,
      "componentType": 5126,
      "count": 6009,
      "max": [
        1,
        0.99954754114151001,
        1,
        1
      ],
      "min": [
        -1,
        -1,
        -1,
        1
      ],
      "type": "VEC4"
    },
    {
      "bufferView": 1,
      "byteOffset": 18072,
      "componentType": 5126,
      "count": 6009,
      "max": [
        0.98457181453704834,
        0.99250596761703491
      ],
      "min": [
        0.0075471671298146248,
        0.0064370408654212952
      ],
      "type": "VEC2"
    },
    {
      "bufferView": 0,
      "byteOffset": 34272,
      "componentType": 5125,
      "count": 25794,
      "max": [
        6008
      ],
      "min": [
        0
      ],
      "type": "SCALAR"
    },
    {
      "bufferView": 2,
      "byteOffset": 198432,
      "componentType": 5126,
      "count": 24,
      "max": [
        44.503288269042969,
        86.528076171875,
        69.986152648925781
      ],
      "min": [
        35.421985626220703,
        50.692005157470703,
        60.904865264892578
      ],
      "type": "VEC3"
    },
    {
      "bufferView": 2,
      "byteOffset": 198720,
      "componentType": 5126,
      "count": 24,
      "max": [
        0.70710700750350952,
        9.2497725745488424e-07,
        0.70710748434066772
      ],
      "min": [
        -0.70710748434066772,
        -2.0220982150931377e-06,
        -0.70710724592208862
      ],
      "type": "VEC3"
    },
    {
      "bufferView": 1,
      "byteOffset": 66144,
      "componentType": 5126,
      "count": 24,
      "max": [
        0.93226194381713867,
        0.97887527942657471
      ],
      "min": [
        0.073436856269836426,
        0.025652185082435608
      ],
      "type": "VEC2"
    },
    {
      "bufferView": 0,
      "byteOffset": 137448,
      "componentType": 5125,
      "count": 36,
      "max": [
        23
      ],
      "min": [
        0
      ],
      "type": "SCALAR"
    }
  ],
  "asset": {
    "extras": {
      "author": "annzep (https://sketchfab.com/annzep)",
      "license": "CC-BY-4.0 (http://creativecommons.org/licenses/by/4.0/)",
      "source": "https://sketchfab.com/3d-models/the-mobile-media-bot-723beb9f0c024f148e41dc8f29304d6f",
      "title": "The Mobile Media Bot"
    },
    "generator": "Sketchfab-10.17.0",
    "version": "2.0"
  },
  "bufferViews": [
    {
      "buffer": 0,
      "byteLength": 137592,
      "byteOffset": 0,
      "name": "floatBufferViews",
      "target": 34963
    },
    {
      "buffer": 0,
      "byteLength": 66336,
      "byteOffset": 137592,
      "byteStride": 8,
      "name": "floatBufferViews",
      "target": 34962
    },
    {
      "buffer": 0,
      "byteLength": 199008,
      "byteOffset": 203928,
      "byteStride": 12,
      "name": "floatBufferViews",
      "target": 34962
    },
    {
      "buffer": 0,
      "byteLength": 132288,
      "byteOffset": 402936,
      "byteStride": 16,
      "name": "floatBufferViews",
      "target": 34962
    }
  ],
  "buffers": [
    {
      "byteLength": 535224,
      "uri": "scene.bin"
    }
  ],
  "images": [
    {
      "uri": "textures/MATERIAL_1_baseColor.png"
    },
    {
      "uri": "textures/MATERIAL_1_metallicRoughness.png"
    },
    {
      "uri": "textures/MATERIAL_1_normal.png"
    },
    {
      "uri": "textures/MATERIAL_2_baseColor.png"
    },
    {
      "uri": "textures/MATERIAL_2_metallicRoughness.png"
    },
    {
      "uri": "textures/MATERIAL_2_emissive.png"
    },
    {
      "uri": "textures/MATERIAL_2_normal.png"
    }
  ],
  "materials": [
    {
      "doubleSided": true,
      "emissiveFactor": [
        0,
        0,
        0
      ],
      "name": "MATERIAL_1",
      "normalTexture": {
        "index": 2,
        "scale": 1,
        "texCoord": 0
      },
      "occlusionTexture": {
        "index": 1,
        "strength": 1,
        "texCoord": 0
      },
      "pbrMetallicRoughness": {
        "baseColorFactor": [
          1,
          1,
          1,
          1
        ],
        "baseColorTexture": {
          "index": 0,
          "texCoord": 0
        },
        "metallicFactor": 0,
        "metallicRoughnessTexture": {
          "index": 1,
          "texCoord": 0
        },
        "roughnessFactor": 1
      }
    },
    {
      "doubleSided": true,
      "emissiveFactor": [
        1,
        1,
        1
      ],
      "emissiveTexture": {
        "index": 5,
        "texCoord": 0
      },
      "name": "MATERIAL_2",
      "normalTexture": {
        "index": 6,
        "scale": 1,
        "texCoord": 0
      },
      "occlusionTexture": {
        "index": 4,
        "strength": 1,
        "texCoord": 0
      },
      "pbrMetallicRoughness": {
        "baseColorFactor": [
          1,
          1,
          1,
          1
        ],
        "baseColorTexture": {
          "index": 3,
          "texCoord": 0
        },
        "metallicFactor": 1,
        "metallicRoughnessTexture": {
          "index": 4,
          "texCoord": 0
        },
        "roughnessFactor": 1
      }
    },
    {
      "doubleSided": true,
      "emissiveFactor": [
        0,
        0,
        0
      ],
      "name": "RED_SIGN",
      "pbrMetallicRoughness": {
        "baseColorFactor": [
          1,
          0,
          0,
          1
        ],
        "metallicFactor": 0,
        "roughnessFactor": 0
      }
    }
  ],
  "meshes": [
    {
      "name": "polySurface64_MATERIAL_1_0",
      "primitives": [
        {
          "attributes": {
            "NORMAL": 1,
            "POSITION": 0,
            "TANGENT": 2,
            "TEXCOORD_0": 3
          },
          "indices": 4,
          "material": 0,
          "mode": 4
        }
      ]
    },
    {
      "name": "polySurface65_MATERIAL_2_0",
      "primitives": [
        {
          "attributes": {
            "NORMAL": 6,
            "POSITION": 5,
            "TANGENT": 7,
            "TEXCOORD_0": 8
          },
          "indices": 9,
          "material": 1,
          "mode": 4
        }
      ]
    },
    {
      "name": "pCube4_RED_SIGN_0",
      "primitives": [
        {
          "attributes": {
            "NORMAL": 11,
            "POSITION": 10,
            "TEXCOORD_0": 12
          },
          "indices": 13,
          "material": 2,
          "mode": 4
        }
      ]
    }
  ],
  "nodes": [
    {
      "children": [
        1
      ],
      "name": "RootNode (gltf orientation matrix)",
      "rotation": [
        -0.70710678118654746,
        -0,
        -0,
        0.70710678118654757
      ]
    },
    {
      "children": [
        2
      ],
      "name": "RootNode (model correction matrix)"
    },
    {
      "children": [
        3
      ],
      "matrix": [
        1,
        0,
        0,
        0,
        0,
        0,
        1,
        0,
        0,
        -1,
        0,
        0,
        0,
        0,
        0,
        1
      ],
      "name": "26bbdb3421c243eebf48cff073f6c3f5.fbx"
    },
    {
      "children": [
        4,
        6,
        8
      ],
      "name": "RootNode"
    },
    {
      "children": [
        5
      ],
      "name": "polySurface64"
    },
    {
      "mesh": 0,
      "name": "polySurface64_MATERIAL_1_0"
    },
    {
      "children": [
        7
      ],
      "name": "polySurface65"
    },
    {
      "mesh": 1,
      "name": "polySurface65_MATERIAL_2_0"
    },
    {
      "children": [
        9
      ],
      "name": "pCube4"
    },
    {
      "mesh": 2,
      "name": "pCube4_RED_SIGN_0"
    }
  ],
  "samplers": [
    {
      "magFilter": 9729,
      "minFilter": 9987,
      "wrapS": 10497,
      "wrapT": 10497
    }
  ],
  "scene": 0,
  "scenes": [
    {
      "name": "OSG_Scene",
      "nodes": [
        0
      ]
    }
  ],
  "textures": [
    {
      "sampler": 0,
      "source": 0
    },
    {
      "sampler": 0,
      "source": 1
    },
    {
      "sampler": 0,
      "source": 2
    },
    {
      "sampler": 0,
      "source": 3
    },
    {
      "sampler": 0,
      "source": 4
    },
    {
      "sampler": 0,
      "source": 5
    },
    {
      "sampler": 0,
      "source": 6
    }
  ]
}

